<svg width="28" height="29" viewBox="0 0 28 29" fill="none" xmlns="http://www.w3.org/2000/svg">
<path d="M8.16666 25V21.5" stroke="white" stroke-width="1.5" stroke-linecap="round" stroke-linejoin="round"/>
<path d="M19.8333 25V18" stroke="white" stroke-width="1.5" stroke-linecap="round" stroke-linejoin="round"/>
<path d="M19.8333 7.5V4" stroke="white" stroke-width="1.5" stroke-linecap="round" stroke-linejoin="round"/>
<path d="M8.16666 11V4" stroke="white" stroke-width="1.5" stroke-linecap="round" stroke-linejoin="round"/>
<path d="M8.16667 21.5C7.07947 21.5 6.53588 21.5 6.10707 21.3224C5.53534 21.0856 5.0811 20.6313 4.84428 20.0596C4.66667 19.6308 4.66667 19.0872 4.66667 18C4.66667 16.9128 4.66667 16.3692 4.84428 15.9404C5.0811 15.3687 5.53534 14.9144 6.10707 14.6776C6.53588 14.5 7.07947 14.5 8.16667 14.5C9.25386 14.5 9.79746 14.5 10.2263 14.6776C10.798 14.9144 11.2522 15.3687 11.4891 15.9404C11.6667 16.3692 11.6667 16.9128 11.6667 18C11.6667 19.0872 11.6667 19.6308 11.4891 20.0596C11.2522 20.6313 10.798 21.0856 10.2263 21.3224C9.79746 21.5 9.25386 21.5 8.16667 21.5Z" stroke="white" stroke-width="1.5"/>
<path d="M19.8333 14.5C18.7461 14.5 18.2026 14.5 17.7737 14.3224C17.202 14.0856 16.7477 13.6313 16.5109 13.0596C16.3333 12.6308 16.3333 12.0872 16.3333 11C16.3333 9.91281 16.3333 9.36921 16.5109 8.9404C16.7477 8.36868 17.202 7.91443 17.7737 7.67761C18.2026 7.5 18.7461 7.5 19.8333 7.5C20.9205 7.5 21.4641 7.5 21.893 7.67761C22.4646 7.91443 22.9189 8.36868 23.1558 8.9404C23.3333 9.36921 23.3333 9.91281 23.3333 11C23.3333 12.0872 23.3333 12.6308 23.1558 13.0596C22.9189 13.6313 22.4646 14.0856 21.893 14.3224C21.4641 14.5 20.9205 14.5 19.8333 14.5Z" stroke="white" stroke-width="1.5"/>
</svg>
