<?xml version="1.0" encoding="UTF-8"?>
<svg id="Layer_2" data-name="Layer 2" xmlns="http://www.w3.org/2000/svg" xmlns:xlink="http://www.w3.org/1999/xlink" viewBox="0 0 510.53 170.22">
  <defs>
    <style>
      .cls-1 {
        fill: #f1f6f5;
      }

      .cls-2 {
        fill: url(#linear-gradient);
      }
    </style>
    <linearGradient id="linear-gradient" x1="329.81" y1="39.75" x2="385.66" y2="30.55" gradientUnits="userSpaceOnUse">
      <stop offset="0" stop-color="#ff1717"/>
      <stop offset="1" stop-color="#ff7c00"/>
    </linearGradient>
  </defs>
  <g id="Layer_1-2" data-name="Layer 1">
    <g>
      <g>
        <polygon class="cls-1" points="510.53 83.3 510.53 102.13 423.12 102.13 423.12 0 441.96 0 441.96 83.3 510.53 83.3"/>
        <path class="cls-1" d="M315.68,69.9h0c0,17.8-14.43,32.23-32.23,32.23h-81.71v-18.84h81.71c7.4,0,13.39-6,13.39-13.39h0c0-7.4-6-13.39-13.39-13.39h-53.46c-15.61,0-28.26-12.65-28.26-28.26h0C201.74,12.65,214.39,0,229.99,0h80.31V18.84h-80.31c-5.2,0-9.42,4.22-9.42,9.42h0c0,5.2,4.22,9.42,9.42,9.42h53.46c17.8,0,32.23,14.43,32.23,32.23Z"/>
        <path class="cls-1" d="M154.75,102.13h-19.37c-2.87-12.44-12.57-54.26-15.6-67.37-6.38,12.11-23.76,45.03-32.49,61.64-1.86,3.54-5.52,5.73-9.51,5.73h0c-4,0-7.65-2.2-9.51-5.73-8.8-16.74-26.78-50.81-33.05-62.73-3.1,13.4-12.92,55.79-15.85,68.46H0C5.09,80.07,15.55,35.11,21.72,8.36,22.86,3.46,27.22,0,32.25,0h.01c4.02,0,7.7,2.21,9.57,5.77,9.29,17.68,29.58,56.13,35.95,68.25,6.57-12.49,26.88-51.03,36.15-68.6C115.69,2.07,119.15,0,122.93,0h.02c4.76,0,8.89,3.27,9.96,7.91,6.16,26.68,16.72,72.04,21.83,94.22Z"/>
        <rect class="cls-1" x="168.8" y="0" width="18.87" height="102.13"/>
        <g>
          <path class="cls-2" d="M402.28,54.49l-26.91,15.55c-1.7,.97-3.89,.21-4.62-1.58-2.89-6.01-7.44-11.06-13.06-14.61-7.11-4.47-15.58-6.23-23.87-5.07-2,.39-3.92-1.12-3.92-3.19V12.75c0-10.72,9.72-15.89,18.59-10.75l53.76,31.04c9.26,5.35,8.9,16.31,.03,21.44Z"/>
          <path class="cls-1" d="M348.79,61.22v40.91h-18.87V62.91c0-1.37,.88-2.67,2.25-3.13,5.55-1.76,11.53-1.23,16.62,1.44Z"/>
        </g>
      </g>
      <g>
        <path class="cls-1" d="M112.54,170.22c-3.58,0-6.37-.78-8.36-2.33-1.99-1.55-3.12-3.8-3.37-6.76-.03-.24-.04-.67-.04-1.28h5.33c0,1.87,.58,3.22,1.74,4.05,1.16,.82,2.85,1.24,5.07,1.24h2.23c1.99,0,3.51-.39,4.55-1.16,1.04-.77,1.58-1.81,1.61-3.11,0-1.44-.43-2.49-1.3-3.16-.87-.67-2.22-1.2-4.05-1.59l-5.42-1.24c-1.26-.28-2.21-.52-2.87-.7s-1.48-.5-2.47-.97c-1-.46-1.74-.99-2.24-1.57s-.94-1.39-1.33-2.42c-.39-1.03-.58-2.23-.58-3.61,0-2.95,.99-5.27,2.98-6.94,1.99-1.67,4.91-2.51,8.76-2.51h1.57c3.57,0,6.32,.77,8.26,2.3,1.94,1.54,3.05,3.77,3.34,6.69,.03,.3,.04,.76,.04,1.37h-5.35c0-1.9-.54-3.28-1.62-4.13s-2.73-1.27-4.95-1.27h-1.53c-2.04,0-3.58,.39-4.62,1.16-1.04,.77-1.56,1.83-1.56,3.18,0,.7,.12,1.31,.36,1.82,.24,.51,.61,.93,1.1,1.27,.49,.34,1.01,.61,1.54,.81,.53,.2,1.2,.39,1.99,.57l5.42,1.28c.69,.17,1.24,.3,1.65,.4,.41,.11,.94,.25,1.57,.44,.64,.19,1.15,.37,1.54,.55,.39,.18,.84,.41,1.36,.7,.52,.29,.94,.58,1.26,.9,.32,.31,.66,.7,1.01,1.15,.35,.45,.62,.93,.81,1.44,.19,.51,.34,1.1,.47,1.76,.13,.67,.19,1.38,.19,2.15,0,2.89-1.03,5.2-3.08,6.91-2.05,1.72-4.98,2.57-8.77,2.57h-2.25Z"/>
        <path class="cls-1" d="M142.81,169.57v-32.74h5.26l9.29,14.23,2.07,3.4,2.09-3.4,9.33-14.23h5.26v32.74h-5.26v-20.04l.09-3.82-9.62,14.84h-3.82l-9.51-14.84,.09,3.78v20.08h-5.26Z"/>
        <path class="cls-1" d="M191.11,169.57l13.22-32.74h5.62l13.11,32.74h-5.67l-2.9-7.47h-14.73l-2.99,7.47h-5.67Zm10.32-12.39h11.42l-5.71-14.5-5.71,14.5Z"/>
        <path class="cls-1" d="M238.06,136.83h15.16c2.68,0,4.93,.89,6.73,2.66,1.81,1.78,2.71,3.99,2.71,6.64v2.61c0,2.29-.57,4.2-1.71,5.72-1.14,1.52-2.81,2.61-5.01,3.27l2.07,2.7,6.25,9.13h-6.21l-7.69-11.15h-7.04v11.15h-5.26v-32.74Zm14.5,16.66c1.53,0,2.71-.44,3.54-1.32,.83-.88,1.25-2.11,1.25-3.7v-1.66c0-1.59-.42-2.81-1.25-3.68-.83-.86-2.03-1.29-3.59-1.29h-9.2v11.65h9.24Z"/>
        <path class="cls-1" d="M286.77,169.57v-27.68h-10.55v-5.06h26.38v5.06h-10.59v27.68h-5.24Z"/>
        <path class="cls-1" d="M348.27,169.57v-27.68h-10.55v-5.06h26.38v5.06h-10.59v27.68h-5.24Z"/>
        <path class="cls-1" d="M391.17,169.57l-13.04-32.74h5.67l7.51,18.89,2.68,7.44,2.65-7.44,7.42-18.89h5.71l-13,32.74h-5.6Z"/>
      </g>
    </g>
  </g>
</svg>